<svg width="32" height="32" viewBox="0 0 32 32" fill="none" xmlns="http://www.w3.org/2000/svg">
<g filter="url(#filter0_d_190_1062)">
<path d="M28 24H22V18H28V24ZM19 24H13V18H19V24ZM10 24H4V18H10V24ZM28 15H22V9H28V15ZM19 15H13V9H19V15ZM10 15H4V9H10V15ZM28 6H22V0H28V6ZM19 6H13V0H19V6ZM10 6H4V0H10V6Z" fill="#2A2A2A"/>
</g>
<defs>
<filter id="filter0_d_190_1062" x="0" y="0" width="32" height="32" filterUnits="userSpaceOnUse" color-interpolation-filters="sRGB">
<feFlood flood-opacity="0" result="BackgroundImageFix"/>
<feColorMatrix in="SourceAlpha" type="matrix" values="0 0 0 0 0 0 0 0 0 0 0 0 0 0 0 0 0 0 127 0" result="hardAlpha"/>
<feOffset dy="4"/>
<feGaussianBlur stdDeviation="2"/>
<feComposite in2="hardAlpha" operator="out"/>
<feColorMatrix type="matrix" values="0 0 0 0 0 0 0 0 0 0 0 0 0 0 0 0 0 0 0.25 0"/>
<feBlend mode="normal" in2="BackgroundImageFix" result="effect1_dropShadow_190_1062"/>
<feBlend mode="normal" in="SourceGraphic" in2="effect1_dropShadow_190_1062" result="shape"/>
</filter>
</defs>
</svg>
