<svg width="48" height="48" viewBox="0 0 48 48" fill="none" xmlns="http://www.w3.org/2000/svg">
<g filter="url(#filter0_d_338_1715)">
<path fill-rule="evenodd" clip-rule="evenodd" d="M24.0003 1.6665C13.8753 1.6665 5.66699 9.87484 5.66699 19.9998C5.66699 30.1248 13.8753 38.3332 24.0003 38.3332C34.1253 38.3332 42.3337 30.1248 42.3337 19.9998C42.3337 9.87484 34.1253 1.6665 24.0003 1.6665ZM30.1787 16.1782C30.4823 15.8638 30.6502 15.4428 30.6464 15.0058C30.6426 14.5688 30.4674 14.1508 30.1584 13.8418C29.8493 13.5328 29.4313 13.3575 28.9943 13.3537C28.5573 13.3499 28.1363 13.5179 27.822 13.8215L24.0003 17.6432L20.1787 13.8215C20.0249 13.6623 19.841 13.5353 19.6377 13.448C19.4343 13.3607 19.2156 13.3147 18.9943 13.3128C18.773 13.3108 18.5536 13.353 18.3487 13.4368C18.1439 13.5206 17.9578 13.6444 17.8013 13.8008C17.6448 13.9573 17.5211 14.1434 17.4373 14.3482C17.3535 14.5531 17.3113 14.7725 17.3132 14.9938C17.3152 15.2151 17.3611 15.4338 17.4485 15.6372C17.5358 15.8405 17.6628 16.0244 17.822 16.1782L21.6437 19.9998L17.822 23.8215C17.6628 23.9752 17.5358 24.1592 17.4485 24.3625C17.3611 24.5658 17.3152 24.7845 17.3132 25.0058C17.3113 25.2271 17.3535 25.4466 17.4373 25.6514C17.5211 25.8563 17.6448 26.0423 17.8013 26.1988C17.9578 26.3553 18.1439 26.4791 18.3487 26.5629C18.5536 26.6467 18.773 26.6888 18.9943 26.6869C19.2156 26.685 19.4343 26.639 19.6377 26.5517C19.841 26.4643 20.0249 26.3374 20.1787 26.1782L24.0003 22.3565L27.822 26.1782C28.1363 26.4818 28.5573 26.6498 28.9943 26.646C29.4313 26.6422 29.8493 26.4669 30.1584 26.1579C30.4674 25.8489 30.6426 25.4308 30.6464 24.9938C30.6502 24.5568 30.4823 24.1358 30.1787 23.8215L26.357 19.9998L30.1787 16.1782Z" fill="white"/>
</g>
<defs>
<filter id="filter0_d_338_1715" x="0" y="0" width="48" height="48" filterUnits="userSpaceOnUse" color-interpolation-filters="sRGB">
<feFlood flood-opacity="0" result="BackgroundImageFix"/>
<feColorMatrix in="SourceAlpha" type="matrix" values="0 0 0 0 0 0 0 0 0 0 0 0 0 0 0 0 0 0 127 0" result="hardAlpha"/>
<feOffset dy="4"/>
<feGaussianBlur stdDeviation="2"/>
<feComposite in2="hardAlpha" operator="out"/>
<feColorMatrix type="matrix" values="0 0 0 0 0 0 0 0 0 0 0 0 0 0 0 0 0 0 0.25 0"/>
<feBlend mode="normal" in2="BackgroundImageFix" result="effect1_dropShadow_338_1715"/>
<feBlend mode="normal" in="SourceGraphic" in2="effect1_dropShadow_338_1715" result="shape"/>
</filter>
</defs>
</svg>
